<svg xmlns="http://www.w3.org/2000/svg" xmlns:xlink="http://www.w3.org/1999/xlink" width="18" height="18" viewBox="0 0 18 18"><defs><style>.a{fill:#fff;stroke:#707070;}.b{clip-path:url(#a);}</style><clipPath id="a"><rect class="a" width="18" height="18" transform="translate(20.645 6)"/></clipPath></defs><g class="b" transform="translate(-20.645 -6)"><path d="M9.29.29a9,9,0,1,0,9,9A9,9,0,0,0,9.29.29Zm0,16.258A7.258,7.258,0,1,1,16.548,9.29,7.254,7.254,0,0,1,9.29,16.548Zm1.524-3.774A1.524,1.524,0,1,1,9.29,11.25,1.526,1.526,0,0,1,10.815,12.774ZM7.862,5.1l.247,4.935a.435.435,0,0,0,.435.414h1.494a.435.435,0,0,0,.435-.414L10.719,5.1a.435.435,0,0,0-.435-.457H8.3A.435.435,0,0,0,7.862,5.1Z" transform="translate(20.354 5.71)"/></g></svg>