<svg xmlns="http://www.w3.org/2000/svg" xmlns:xlink="http://www.w3.org/1999/xlink" width="18" height="18" viewBox="0 0 18 18"><defs><style>.a,.c{fill:#0d0d0d;}.a{stroke:#909090;}.b{clip-path:url(#a);}</style><clipPath id="a"><rect class="a" width="18" height="18"/></clipPath></defs><g class="b"><path class="c" d="M10.845,3.742l.589,1.767L8.213,8.729A.853.853,0,0,0,9.42,9.936L12.64,6.715l1.767.589a.732.732,0,0,0,.748-.176l2.264-2.264a.731.731,0,0,0-.286-1.21L15.154,3l-.659-1.978a.731.731,0,0,0-1.21-.286L11.021,2.994a.732.732,0,0,0-.177.748ZM8.817,5.635a3.679,3.679,0,0,1,.792.09l.524-.524L9.765,4.1c-.009-.026-.007-.052-.015-.079A5.482,5.482,0,1,0,14.126,8.4c-.026-.007-.053,0-.078-.013l-1.1-.367-.524.524A3.695,3.695,0,1,1,8.817,5.635ZM17.222,6.67,15.96,7.932a1.842,1.842,0,0,1-.154.126A7.141,7.141,0,1,1,10.1,2.344a1.887,1.887,0,0,1,.117-.155L11.479.927A8.816,8.816,0,1,0,17.222,6.67Z" transform="translate(0 -0.149)"/></g></svg>