<svg xmlns="http://www.w3.org/2000/svg" xmlns:xlink="http://www.w3.org/1999/xlink" width="20" height="20" viewBox="0 0 20 20"><defs><style>.a,.c{fill:#0c2577;}.a{stroke:#707070;}.b{clip-path:url(#a);}</style><clipPath id="a"><rect class="a" width="20" height="20" transform="translate(204 791)"/></clipPath></defs><g class="b" transform="translate(-204 -791)"><path class="c" d="M10,1.25C4.477,1.25,0,4.887,0,9.375A7.212,7.212,0,0,0,2.227,14.48,9.938,9.938,0,0,1,.086,18.223a.311.311,0,0,0-.059.34.306.306,0,0,0,.285.188A8.933,8.933,0,0,0,5.8,16.742,11.913,11.913,0,0,0,10,17.5c5.523,0,10-3.637,10-8.125S15.523,1.25,10,1.25ZM5,10.625a1.25,1.25,0,1,1,1.25-1.25A1.249,1.249,0,0,1,5,10.625Zm5,0a1.25,1.25,0,1,1,1.25-1.25A1.249,1.249,0,0,1,10,10.625Zm5,0a1.25,1.25,0,1,1,1.25-1.25A1.249,1.249,0,0,1,15,10.625Z" transform="translate(204 791)"/></g></svg>