<svg xmlns="http://www.w3.org/2000/svg" xmlns:xlink="http://www.w3.org/1999/xlink" width="16" height="16" viewBox="0 0 16 16"><defs><style>.a{fill:#fff;stroke:#707070;}.b{clip-path:url(#a);}.c{fill:#0c2577;}</style><clipPath id="a"><rect class="a" width="16" height="16" transform="translate(1028 646)"/></clipPath></defs><g class="b" transform="translate(-1028 -646)"><path class="c" d="M13.112,0H4.069A1.356,1.356,0,0,0,2.713,1.356V2.713H1.356A1.356,1.356,0,0,0,0,4.069v9.043a1.356,1.356,0,0,0,1.356,1.356H10.4a1.356,1.356,0,0,0,1.356-1.356V11.756h1.356A1.356,1.356,0,0,0,14.469,10.4V1.356A1.356,1.356,0,0,0,13.112,0ZM10.23,13.112h-8.7a.17.17,0,0,1-.17-.17v-8.7a.17.17,0,0,1,.17-.17H2.713V10.4a1.356,1.356,0,0,0,1.356,1.356H10.4v1.187A.17.17,0,0,1,10.23,13.112ZM12.943,10.4h-8.7a.17.17,0,0,1-.17-.17v-8.7a.17.17,0,0,1,.17-.17h8.7a.17.17,0,0,1,.17.17v8.7A.17.17,0,0,1,12.943,10.4Z" transform="translate(1029 647)"/></g></svg>