<svg xmlns="http://www.w3.org/2000/svg" xmlns:xlink="http://www.w3.org/1999/xlink" width="8" height="8" viewBox="0 0 8 8"><defs><style>.a,.c{fill:#0d0d0d;}.a{stroke:#707070;}.b{clip-path:url(#a);}</style><clipPath id="a"><rect class="a" width="8" height="8"/></clipPath></defs><g class="b"><path class="c" d="M5.19,13.6l2.693-2.693a.4.4,0,0,0,0-.564l-.626-.626a.4.4,0,0,0-.564,0L4,12.41,1.308,9.717a.4.4,0,0,0-.564,0l-.625.625a.4.4,0,0,0,0,.564L2.811,13.6.118,16.293a.4.4,0,0,0,0,.564l.626.626a.4.4,0,0,0,.564,0L4,14.79l2.693,2.693a.4.4,0,0,0,.564,0l.626-.626a.4.4,0,0,0,0-.564Z" transform="translate(-0.001 -9.6)"/></g></svg>