<svg xmlns="http://www.w3.org/2000/svg" xmlns:xlink="http://www.w3.org/1999/xlink" width="16" height="16" viewBox="0 0 16 16"><defs><style>.a{fill:#fff;}.a,.b{stroke:#707070;}.b,.e{fill:#0c2577;}.c{clip-path:url(#a);}.d{clip-path:url(#b);}</style><clipPath id="a"><rect class="a" width="16" height="16" transform="translate(1085 646)"/></clipPath><clipPath id="b"><rect class="b" width="16" height="16" transform="translate(802 585)"/></clipPath></defs><g class="c" transform="translate(-1085 -646)"><g class="d" transform="translate(282.999 61)"><path class="e" d="M15.6,9.2h-.4V6.3a1.81,1.81,0,0,0-.528-1.272l-2.1-2.1A1.815,1.815,0,0,0,11.3,2.4h-.9v-1A1.4,1.4,0,0,0,9,0H3A1.4,1.4,0,0,0,1.6,1.4v1H.2a.2.2,0,0,0-.2.2V3a.2.2,0,0,0,.2.2h6A.2.2,0,0,0,6.4,3V2.6a.2.2,0,0,0-.2-.2H2.8v-1A.2.2,0,0,1,3,1.2H9a.2.2,0,0,1,.2.2V9.2H6.067A2.365,2.365,0,0,0,2.8,8.332V7.2H1.6v3.2a2.4,2.4,0,0,0,4.8,0H9.6a2.4,2.4,0,1,0,4.8,0h1.2A.4.4,0,0,0,16,10V9.6A.4.4,0,0,0,15.6,9.2ZM4,11.6a1.2,1.2,0,1,1,1.2-1.2A1.2,1.2,0,0,1,4,11.6Zm6.4-8h.9a.615.615,0,0,1,.425.175L13.552,5.6H10.4Zm1.6,8a1.2,1.2,0,1,1,1.2-1.2A1.2,1.2,0,0,1,12,11.6Zm2-2.522a2.383,2.383,0,0,0-3.6-.455V6.8H14ZM6.4,6.2V5.8a.2.2,0,0,0-.2-.2H.2a.2.2,0,0,0-.2.2v.4a.2.2,0,0,0,.2.2h6A.2.2,0,0,0,6.4,6.2ZM7,4.8a.2.2,0,0,0,.2-.2V4.2A.2.2,0,0,0,7,4H1a.2.2,0,0,0-.2.2v.4a.2.2,0,0,0,.2.2Z" transform="translate(802 587)"/></g></g></svg>