<svg xmlns="http://www.w3.org/2000/svg" xmlns:xlink="http://www.w3.org/1999/xlink" width="16" height="16" viewBox="0 0 16 16"><defs><style>.a{fill:#fff;stroke:#707070;}.b{clip-path:url(#a);}.c{fill:#0c2577;}</style><clipPath id="a"><rect class="a" width="16" height="16" transform="translate(975 646)"/></clipPath></defs><g class="b" transform="translate(-975 -646)"><path class="c" d="M14.064,7.671H11.611l1.228-1.228a1.279,1.279,0,0,0-.9-2.181h-1.7V1.279A1.279,1.279,0,0,0,8.952,0H6.4A1.279,1.279,0,0,0,5.117,1.279V4.262h-1.7a1.278,1.278,0,0,0-.9,2.181L3.737,7.671H1.279A1.279,1.279,0,0,0,0,8.95v3.409a1.279,1.279,0,0,0,1.279,1.279H14.064a1.279,1.279,0,0,0,1.279-1.279V8.95A1.279,1.279,0,0,0,14.064,7.671ZM3.409,5.54H6.393V1.279H8.95V5.54h2.983L7.671,9.8Zm10.654,6.819H1.279V8.95H5.01l1.755,1.755a1.279,1.279,0,0,0,1.809,0L10.329,8.95h3.734Zm-2.344-1.7a.639.639,0,1,1,.639.639A.638.638,0,0,1,11.72,10.654Z" transform="translate(975 647)"/></g></svg>