<svg xmlns="http://www.w3.org/2000/svg" xmlns:xlink="http://www.w3.org/1999/xlink" width="16" height="16" viewBox="0 0 16 16"><defs><style>.a{fill:#fff;stroke:#707070;}.b{clip-path:url(#a);}.c{fill:#0c2577;}</style><clipPath id="a"><rect class="a" width="16" height="16" transform="translate(870 644)"/></clipPath></defs><g class="b" transform="translate(-870 -644)"><path class="c" d="M14.29,7.831h-3.9V6.965h1.732a1.3,1.3,0,0,0,.917-2.217L8.712.418a1.3,1.3,0,0,0-1.838,0l-4.33,4.33a1.3,1.3,0,0,0,.92,2.217H5.2v.866H1.3A1.3,1.3,0,0,0,0,9.13v3.464a1.3,1.3,0,0,0,1.3,1.3H14.29a1.3,1.3,0,0,0,1.3-1.3V9.13A1.3,1.3,0,0,0,14.29,7.831ZM3.464,5.666l4.33-4.33,4.33,4.33H9.094V10H6.5V5.666ZM14.29,12.594H1.3V9.13H5.2V10a1.3,1.3,0,0,0,1.3,1.3h2.6a1.3,1.3,0,0,0,1.3-1.3V9.13h3.9Zm-1.083-1.732a.65.65,0,1,1-.65-.65A.648.648,0,0,1,13.208,10.862Z" transform="translate(870 644.963)"/></g></svg>