<svg xmlns="http://www.w3.org/2000/svg" xmlns:xlink="http://www.w3.org/1999/xlink" width="12" height="12" viewBox="0 0 12 12"><defs><style>.a,.c{fill:#0c2577;}.a{stroke:#707070;}.b{clip-path:url(#a);}</style><clipPath id="a"><rect class="a" width="12" height="12"/></clipPath></defs><g class="b"><path class="c" d="M6.375,8.25H5.813V.375A.376.376,0,0,0,5.438,0H5.063a.376.376,0,0,0-.375.375V8.25H4.125a.376.376,0,0,0-.375.375v.75a.376.376,0,0,0,.375.375h.563v1.875A.376.376,0,0,0,5.063,12h.375a.376.376,0,0,0,.375-.375V9.75h.563a.376.376,0,0,0,.375-.375v-.75A.376.376,0,0,0,6.375,8.25Zm-3.75-6H2.063V.375A.376.376,0,0,0,1.688,0H1.313A.376.376,0,0,0,.938.375V2.25H.375A.376.376,0,0,0,0,2.625v.75a.376.376,0,0,0,.375.375H.938v7.875A.376.376,0,0,0,1.313,12h.375a.376.376,0,0,0,.375-.375V3.75h.563A.376.376,0,0,0,3,3.375v-.75A.376.376,0,0,0,2.625,2.25Zm7.5,3H9.563V.375A.376.376,0,0,0,9.188,0H8.813a.376.376,0,0,0-.375.375V5.25H7.875a.376.376,0,0,0-.375.375v.75a.376.376,0,0,0,.375.375h.563v4.875A.376.376,0,0,0,8.813,12h.375a.376.376,0,0,0,.375-.375V6.75h.563a.376.376,0,0,0,.375-.375v-.75A.376.376,0,0,0,10.125,5.25Z" transform="translate(0.75)"/></g></svg>