<svg xmlns="http://www.w3.org/2000/svg" xmlns:xlink="http://www.w3.org/1999/xlink" width="12" height="12" viewBox="0 0 12 12"><defs><style>.a,.c{fill:#0c2577;}.a{stroke:#707070;}.b{clip-path:url(#a);}</style><clipPath id="a"><rect class="a" width="12" height="12" transform="translate(-9670 -5145)"/></clipPath></defs><g class="b" transform="translate(9670 5145)"><path class="c" d="M10.875.75H1.125A1.125,1.125,0,0,0,0,1.875v8.25A1.125,1.125,0,0,0,1.125,11.25h9.75A1.125,1.125,0,0,0,12,10.125V1.875A1.125,1.125,0,0,0,10.875.75Zm-6.251.938H7.373v2.25H4.624Zm0,3.188H7.373v2.25H4.624Zm-.938,5.438H1.219a.282.282,0,0,1-.281-.281V8.063H3.687Zm0-3.187H.938V4.875H3.687Zm0-3.187H.938V1.969a.282.282,0,0,1,.281-.281H3.687Zm3.689,6.375H4.624V8.063H7.373v2.25Zm3.687,0H8.313V8.063h2.749Zm0-3.187H8.313V4.875h2.749Zm0-3.187H8.313V1.688h2.749Z" transform="translate(-9670 -5145)"/></g></svg>