<svg xmlns="http://www.w3.org/2000/svg" xmlns:xlink="http://www.w3.org/1999/xlink" width="16" height="16" viewBox="0 0 16 16"><defs><style>.a{fill:#fff;}.a,.b{stroke:#707070;}.b,.e{fill:#0c2577;}.c{clip-path:url(#a);}.d{clip-path:url(#b);}</style><clipPath id="a"><rect class="a" width="16" height="16" transform="translate(1141 646)"/></clipPath><clipPath id="b"><rect class="b" width="16" height="16" transform="translate(189.924 328.924)"/></clipPath></defs><g class="c" transform="translate(-1141 -646)"><g class="d" transform="translate(951.075 317.076)"><path class="e" d="M6.967,12.814a.869.869,0,0,1-.871-.871V9.953a.871.871,0,1,1,1.742,0v1.991A.869.869,0,0,1,6.967,12.814Zm6.967-5.35v6.967a1.493,1.493,0,0,1-1.493,1.493H1.493A1.493,1.493,0,0,1,0,14.431V7.464A1.493,1.493,0,0,1,1.493,5.972h1V4.479a4.479,4.479,0,1,1,8.957.044V5.972h1A1.493,1.493,0,0,1,13.934,7.464ZM3.981,5.972H9.953V4.479a2.986,2.986,0,0,0-5.972,0Zm8.46,1.493H1.493v6.967H12.441Z" transform="translate(190.995 329)"/></g></g></svg>