<svg xmlns="http://www.w3.org/2000/svg" width="32" height="32" viewBox="0 0 32 32"><defs><style>.a{fill:rgba(255,255,255,0);stroke:rgba(0,0,0,0);}.b{fill:red;}.c{stroke:none;}.d{fill:none;}</style></defs><g transform="translate(39.746 1)"><g transform="translate(-39.746 -1)"><g class="a"><rect class="c" width="32" height="32"/><rect class="d" x="0.5" y="0.5" width="31" height="31"/></g><path class="b" d="M36.6,21.584a17.586,17.586,0,0,0-3.051.325,29.032,29.032,0,0,1-4.623-6.871c1.215-5.114.607-5.838.339-6.18-.285-.363-.688-.953-1.146-.953a4.481,4.481,0,0,0-.923.156,1.745,1.745,0,0,0-1.03,1.1c-.642,1.5.239,4.062,1.146,6.036a60.988,60.988,0,0,1-3.442,9.767c-3.443,1.577-5.272,3.126-5.438,4.6a2.177,2.177,0,0,0,1.013,2.037,1.459,1.459,0,0,0,.879.3h0c.795,0,1.6-.609,2.528-1.914a25.779,25.779,0,0,0,2.165-3.862,43.534,43.534,0,0,1,8.021-2.564c1.436,1.378,2.721,2.076,3.826,2.076a2.412,2.412,0,0,0,2.017-1.082,1.837,1.837,0,0,0,.354-1.962C38.883,21.917,38.021,21.584,36.6,21.584ZM20.342,30.373c-.425-.326-.4-.546-.392-.629.056-.505.848-1.4,2.789-2.493C21.268,29.969,20.478,30.33,20.342,30.373Zm7.45-20.826c.039-.013.949,1,.087,2.922A2.179,2.179,0,0,1,27.793,9.547ZM25.915,24.107a64.771,64.771,0,0,0,2.429-6.872,31.1,31.1,0,0,0,3.473,5.037A45.257,45.257,0,0,0,25.915,24.107Zm11.721-.435a1.369,1.369,0,0,1-1.1.4c-.484,0-.665-.288-1.406-.858a13.079,13.079,0,0,1,1.645-.1c.808,0,.956.119,1.068.179A1.41,1.41,0,0,1,37.636,23.672Z" transform="translate(-12.15 -3.906)"/></g></g></svg>