<svg xmlns="http://www.w3.org/2000/svg" xmlns:xlink="http://www.w3.org/1999/xlink" width="12" height="12" viewBox="0 0 12 12"><defs><style>.a,.c{fill:#ffffff;}.a{stroke:#707070;}.b{clip-path:url(#a);}</style><clipPath id="a"><rect class="a" width="12" height="12" transform="translate(9551 -17458)"/></clipPath></defs><g class="b" transform="translate(-9551 17458)"><path class="c" d="M11.561,1.319,10.682.439a1.5,1.5,0,0,0-2.121,0L6.814,2.185,6,3,.3,8.7,0,11.375A.563.563,0,0,0,.561,12a.571.571,0,0,0,.063,0L3.3,11.7,9,6l.814-.814L11.56,3.44a1.5,1.5,0,0,0,0-2.121ZM2.783,10.626,1.2,10.8l.176-1.586L6.8,3.795l.727-.727,1.41,1.41L8.2,5.2,2.783,10.626Zm7.982-7.982L9.727,3.682,8.318,2.272,9.356,1.235a.375.375,0,0,1,.53,0l.879.879A.375.375,0,0,1,10.765,2.644Z" transform="translate(9551 -17458)"/></g></svg>