<svg xmlns="http://www.w3.org/2000/svg" xmlns:xlink="http://www.w3.org/1999/xlink" width="12" height="12" viewBox="0 0 12 12"><defs><style>.a,.c{fill:#0d0d0d;}.a{stroke:#545454;}.b{clip-path:url(#a);}</style><clipPath id="a"><rect class="a" width="12" height="12"/></clipPath></defs><g class="b"><path class="c" d="M11.917,10.989,9.072,8.144a.278.278,0,0,0-.2-.082H8.564a4.874,4.874,0,1,0-.5.5v.309a.288.288,0,0,0,.082.2l2.845,2.845a.281.281,0,0,0,.4,0l.53-.53A.281.281,0,0,0,11.917,10.989ZM4.875,8.625a3.75,3.75,0,1,1,3.75-3.75A3.749,3.749,0,0,1,4.875,8.625Z" transform="translate(0.038)"/></g></svg>