<svg xmlns="http://www.w3.org/2000/svg" xmlns:xlink="http://www.w3.org/1999/xlink" width="18" height="18" viewBox="0 0 18 18"><defs><style>.a,.c{fill:#0d0d0d;}.a{stroke:#707070;}.b{clip-path:url(#a);}</style><clipPath id="a"><rect class="a" width="18" height="18"/></clipPath></defs><g class="b"><path class="c" d="M17.773,1.26,15.88,3.153A9,9,0,0,0,.527,9.062a.434.434,0,0,0,.435.454H1.98a.435.435,0,0,0,.435-.41,7.114,7.114,0,0,1,12.132-4.62L12.582,6.45a.435.435,0,0,0,.308.743h5.191a.436.436,0,0,0,.435-.435V1.567A.435.435,0,0,0,17.773,1.26Zm.3,8.257H17.052a.435.435,0,0,0-.435.41,7.114,7.114,0,0,1-12.132,4.62L6.45,12.582a.435.435,0,0,0-.308-.743H.952a.436.436,0,0,0-.435.435v5.191a.435.435,0,0,0,.743.308L3.153,15.88A9,9,0,0,0,18.5,9.97a.434.434,0,0,0-.435-.454Z" transform="translate(-0.516 -0.516)"/></g></svg>