<svg xmlns="http://www.w3.org/2000/svg" xmlns:xlink="http://www.w3.org/1999/xlink" width="18" height="18" viewBox="0 0 18 18"><defs><style>.a,.c{fill:#0d0d0d;}.a{stroke:#0d0d0d;}.b{clip-path:url(#a);}</style><clipPath id="a"><rect class="a" width="18" height="18"/></clipPath></defs><g class="b"><path class="c" d="M7.386,15.066H12.7a.3.3,0,0,0,.3-.3V13.589a.3.3,0,0,0-.3-.3H7.386a.3.3,0,0,0-.3.3v1.182A.3.3,0,0,0,7.386,15.066Zm-3.25.3H5.318a.593.593,0,0,0,.591-.591V13.589A.593.593,0,0,0,5.318,13H4.136a.593.593,0,0,0-.591.591v1.182A.593.593,0,0,0,4.136,15.362Zm0-4.727H5.318a.593.593,0,0,0,.591-.591V8.863a.593.593,0,0,0-.591-.591H4.136a.593.593,0,0,0-.591.591v1.182A.593.593,0,0,0,4.136,10.635Zm3.25-.3H12.7a.3.3,0,0,0,.3-.3V8.863a.3.3,0,0,0-.3-.3H7.386a.3.3,0,0,0-.3.3v1.182A.3.3,0,0,0,7.386,10.34ZM4.136,5.908H5.318a.593.593,0,0,0,.591-.591V4.136a.593.593,0,0,0-.591-.591H4.136a.593.593,0,0,0-.591.591V5.318A.593.593,0,0,0,4.136,5.908Zm3.25-.3H12.7a.3.3,0,0,0,.3-.3V4.136a.3.3,0,0,0-.3-.3H7.386a.3.3,0,0,0-.3.3V5.318A.3.3,0,0,0,7.386,5.613ZM15.362,0H1.182A1.18,1.18,0,0,0,0,1.182V17.725a1.18,1.18,0,0,0,1.182,1.182h14.18a1.18,1.18,0,0,0,1.182-1.182V1.182A1.18,1.18,0,0,0,15.362,0Zm-.591,17.134h-13V1.773h13Z" transform="translate(1.182)"/></g></svg>