<svg xmlns="http://www.w3.org/2000/svg" xmlns:xlink="http://www.w3.org/1999/xlink" width="18" height="18" viewBox="0 0 18 18"><defs><style>.a{fill:#fff;stroke:#707070;}.b{clip-path:url(#a);}</style><clipPath id="a"><rect class="a" width="18" height="18" transform="translate(20.645 6)"/></clipPath></defs><g class="b" transform="translate(-20.645 -6)"><path d="M18,4.5V3.375a.423.423,0,0,0-.422-.422H7.172a.427.427,0,0,0-.422.429V4.5a.423.423,0,0,0,.422.422H17.577A.423.423,0,0,0,18,4.5Zm0,5.625V9a.423.423,0,0,0-.422-.422H7.172A.423.423,0,0,0,6.75,9v1.125a.423.423,0,0,0,.422.422H17.577A.423.423,0,0,0,18,10.125Zm0,5.625V14.624a.423.423,0,0,0-.422-.422H7.172a.423.423,0,0,0-.422.422v1.125a.423.423,0,0,0,.422.422H17.577A.423.423,0,0,0,18,15.749ZM5.7,2.278,2.464,5.505a.422.422,0,0,1-.6,0l-.436-.436L.123,3.751a.422.422,0,0,1,0-.6l.436-.436a.422.422,0,0,1,.6,0L2.169,3.744l2.5-2.5a.422.422,0,0,1,.6,0L5.7,1.68a.425.425,0,0,1,0,.6ZM5.7,7.9,2.464,11.133a.422.422,0,0,1-.6,0L1.431,10.7.123,9.372a.422.422,0,0,1,0-.6l.436-.436a.422.422,0,0,1,.6,0L2.169,9.365l2.5-2.5a.422.422,0,0,1,.6,0L5.7,7.3a.425.425,0,0,1,0,.6ZM2.25,13.5a1.687,1.687,0,1,0,1.687,1.687A1.676,1.676,0,0,0,2.25,13.5Z" transform="translate(20.645 6.003)"/></g></svg>