<svg xmlns="http://www.w3.org/2000/svg" xmlns:xlink="http://www.w3.org/1999/xlink" width="12" height="12" viewBox="0 0 12 12"><defs><style>.a,.c{fill:#909090;}.a{stroke:#707070;}.b{clip-path:url(#a);}</style><clipPath id="a"><rect class="a" width="12" height="12" transform="translate(-9653 -5145)"/></clipPath></defs><g class="b" transform="translate(9653 5145)"><path class="c" d="M8,1.333H4a4,4,0,0,0,0,8H8a4,4,0,0,0,0-8Zm-7,4a3,3,0,1,1,3,3A3,3,0,0,1,1,5.333Zm7,3H6.645a4,4,0,0,0,0-6H8a3,3,0,0,1,0,6Z" transform="translate(-9653 -5144.333)"/></g></svg>