<svg xmlns="http://www.w3.org/2000/svg" xmlns:xlink="http://www.w3.org/1999/xlink" width="16" height="16" viewBox="0 0 16 16"><defs><style>.a{fill:#fff;stroke:#707070;}.b{clip-path:url(#a);}.c{fill:#0c2577;stroke:#0c2577;stroke-width:0.5px;}</style><clipPath id="a"><rect class="a" width="16" height="16" transform="translate(1001 646)"/></clipPath></defs><g class="b" transform="translate(-1001 -646)"><g transform="translate(1003.857 647.051)"><path class="c" d="M222.709,154.7a.31.31,0,0,0-.31.31v5.866a.31.31,0,1,0,.621,0v-5.866A.31.31,0,0,0,222.709,154.7Zm0,0" transform="translate(-215.499 -149.903)"/><path class="c" d="M104.709,154.7a.31.31,0,0,0-.31.31v5.866a.31.31,0,0,0,.621,0v-5.866A.31.31,0,0,0,104.709,154.7Zm0,0" transform="translate(-101.162 -149.903)"/><path class="c" d="M.878,3.944V11.59a1.712,1.712,0,0,0,.455,1.181,1.528,1.528,0,0,0,1.109.479H8.314a1.528,1.528,0,0,0,1.109-.479,1.712,1.712,0,0,0,.455-1.181V3.944a1.186,1.186,0,0,0-.3-2.331H7.985V1.225A1.219,1.219,0,0,0,6.756,0H4A1.219,1.219,0,0,0,2.771,1.225v.388H1.182a1.186,1.186,0,0,0-.3,2.331ZM8.314,12.63H2.442A.983.983,0,0,1,1.5,11.59V3.971H9.258V11.59A.983.983,0,0,1,8.314,12.63ZM3.392,1.225A.6.6,0,0,1,4,.619H6.756a.6.6,0,0,1,.608.605v.388H3.392ZM1.182,2.233H9.574a.559.559,0,1,1,0,1.117H1.182a.559.559,0,1,1,0-1.117Zm0,0" transform="translate(0 0)"/><path class="c" d="M163.709,154.7a.31.31,0,0,0-.31.31v5.866a.31.31,0,1,0,.621,0v-5.866A.31.31,0,0,0,163.709,154.7Zm0,0" transform="translate(-158.33 -149.903)"/></g></g></svg>