<svg xmlns="http://www.w3.org/2000/svg" xmlns:xlink="http://www.w3.org/1999/xlink" width="32" height="32" viewBox="0 0 32 32"><defs><style>.a,.c{fill:#0c2577;}.a{stroke:#707070;}.b{clip-path:url(#a);}</style><clipPath id="a"><rect class="a" width="32" height="32" transform="translate(-0.018)"/></clipPath></defs><g class="b" transform="translate(0.018)"><path class="c" d="M24.081,10.6a4.952,4.952,0,0,0-5.939-4.509A7.8,7.8,0,0,0,4.416,9.342a7.086,7.086,0,0,0,2.671,13.65H21.968a6.379,6.379,0,0,0,2.113-12.4ZM21.968,20.866H7.087a4.962,4.962,0,0,1-.709-9.872v-.049A5.669,5.669,0,0,1,17.291,8.793a2.834,2.834,0,0,1,4.287,3.588,3.825,3.825,0,0,1,.39-.018,4.252,4.252,0,0,1,0,8.5ZM13.132,8.4a.532.532,0,0,0-.753,0L7.773,13a.532.532,0,0,0,0,.753l.749.749a.533.533,0,0,0,.757,0l2.414-2.471v6.179a.533.533,0,0,0,.531.531h1.063a.533.533,0,0,0,.531-.531V12.03L16.233,14.5a.533.533,0,0,0,.757,0l.749-.749a.532.532,0,0,0,0-.753Z" transform="translate(1.917 2.983)"/></g></svg>