<svg xmlns="http://www.w3.org/2000/svg" xmlns:xlink="http://www.w3.org/1999/xlink" width="39.998" height="39.998" viewBox="0 0 39.998 39.998"><defs><style>.a,.c{fill:#cacaca;}.a{stroke:#707070;}.b{clip-path:url(#a);}</style><clipPath id="a"><rect class="a" width="39.998" height="39.998" transform="translate(0 0)"/></clipPath></defs><g class="b"><path class="c" d="M30.1,26.334c-3.182,0-3.731-.118-5.659.533a13.623,13.623,0,0,1-8.747,0c-1.928-.651-2.469-.533-5.659-.533A10.031,10.031,0,0,0,0,36.366V37.62a2.505,2.505,0,0,0,2.508,2.508H37.62a2.505,2.505,0,0,0,2.508-2.508V36.366A10.031,10.031,0,0,0,30.1,26.334Zm6.27,10.032H3.762a6.262,6.262,0,0,1,6.27-6.27c3.221,0,3.213-.086,4.452.329a17.3,17.3,0,0,0,11.161,0C26.883,30,26.875,30.1,30.1,30.1A6.278,6.278,0,0,1,36.366,36.366ZM20.064,25.08A12.54,12.54,0,1,0,7.524,12.54,12.537,12.537,0,0,0,20.064,25.08Zm0-21.318a8.778,8.778,0,1,1-8.778,8.778A8.784,8.784,0,0,1,20.064,3.762Z" transform="translate(-0.065 -0.065)"/></g></svg>