<svg xmlns="http://www.w3.org/2000/svg" xmlns:xlink="http://www.w3.org/1999/xlink" width="16" height="16" viewBox="0 0 16 16"><defs><style>.a{fill:#fff;stroke:#707070;}.b{clip-path:url(#a);}.c{fill:#0c2577;}</style><clipPath id="a"><rect class="a" width="16" height="16" transform="translate(1171 646)"/></clipPath></defs><g class="b" transform="translate(-1171 -646)"><path class="c" d="M4.317,65.388v1.547H1.439A1.439,1.439,0,0,0,0,68.374V71.03a1.439,1.439,0,0,0,1.439,1.439H4.317v1.547a1.439,1.439,0,0,0,2.455,1.016l4.317-4.314a1.442,1.442,0,0,0,0-2.036L6.772,64.366A1.442,1.442,0,0,0,4.317,65.388ZM10.073,69.7,5.756,74.022V71.033H1.439V68.377H5.756V65.388Zm2.4,5.756H9.953a.361.361,0,0,1-.36-.36v-.719a.361.361,0,0,1,.36-.36h2.518a1.439,1.439,0,0,0,1.439-1.439V66.827a1.439,1.439,0,0,0-1.439-1.439H9.953a.361.361,0,0,1-.36-.36v-.719a.361.361,0,0,1,.36-.36h2.518a2.879,2.879,0,0,1,2.878,2.878v5.756A2.879,2.879,0,0,1,12.471,75.461Z" transform="translate(1171.001 584.052)"/></g></svg>