<svg xmlns="http://www.w3.org/2000/svg" xmlns:xlink="http://www.w3.org/1999/xlink" width="24" height="24" viewBox="0 0 24 24"><defs><style>.a{fill:#0d0d0d;}.b{clip-path:url(#a);}</style><clipPath id="a"><rect class="a" width="24" height="24"/></clipPath></defs><g class="b"><g transform="translate(1.135 4.736)"><path class="a" d="M601.049,350.236h18.909a1.25,1.25,0,0,0,0-2.5H601.049a1.25,1.25,0,0,0,0,2.5Z" transform="translate(-667.757 192.171) rotate(-45)"/><path class="a" d="M619.958,353.75H601.049a1.25,1.25,0,1,0,0,2.5h18.909a1.25,1.25,0,0,0,0-2.5Z" transform="translate(-169.964 -675.45) rotate(45)"/><path class="a" d="M619.958,359.764H601.049a1.25,1.25,0,1,0,0,2.5h18.909a1.25,1.25,0,0,0,0-2.5Z" transform="translate(-676.262 183.694) rotate(-45)"/></g></g></svg>