<svg xmlns="http://www.w3.org/2000/svg" xmlns:xlink="http://www.w3.org/1999/xlink" width="20" height="20" viewBox="0 0 20 20"><defs><style>.a,.c{fill:#0c2577;}.a{stroke:#707070;}.b{clip-path:url(#a);}</style><clipPath id="a"><rect class="a" width="20" height="20" transform="translate(-4279 2538)"/></clipPath></defs><g transform="translate(0)"><g class="b" transform="translate(4279 -2538)"><path class="c" d="M5.623,8.561a1.25,1.25,0,1,0,1.25,1.25A1.248,1.248,0,0,0,5.623,8.561Zm4.374,0a1.25,1.25,0,1,0,1.25,1.25A1.248,1.248,0,0,0,10,8.561Zm4.374,0a1.25,1.25,0,1,0,1.25,1.25A1.248,1.248,0,0,0,14.372,8.561ZM10,1.687c-5.523,0-10,3.636-10,8.124a7.18,7.18,0,0,0,2.066,4.933A9.911,9.911,0,0,1,.253,17.6a.938.938,0,0,0,.684,1.582,9.477,9.477,0,0,0,5.433-1.808A12.063,12.063,0,0,0,10,17.935c5.523,0,10-3.636,10-8.124S15.521,1.687,10,1.687ZM10,16.06a10.149,10.149,0,0,1-3.062-.473l-.887-.281-.762.539a8.4,8.4,0,0,1-2.246,1.133,9.8,9.8,0,0,0,.777-1.57l.414-1.1-.8-.851A5.372,5.372,0,0,1,1.874,9.811c0-3.445,3.644-6.249,8.124-6.249s8.124,2.8,8.124,6.249S14.478,16.06,10,16.06Z" transform="translate(-4278.997 2537.564)"/></g></g></svg>