<svg xmlns="http://www.w3.org/2000/svg" xmlns:xlink="http://www.w3.org/1999/xlink" width="18" height="18" viewBox="0 0 18 18"><defs><style>.a,.c{fill:#0d0d0d;}.a{stroke:#707070;}.b{clip-path:url(#a);}</style><clipPath id="a"><rect class="a" width="18" height="18"/></clipPath></defs><g class="b"><path class="c" d="M13.5,7.9a2.7,2.7,0,1,0-2.7-2.7A2.7,2.7,0,0,0,13.5,7.9Zm0-4.05A1.35,1.35,0,1,1,12.15,5.2,1.35,1.35,0,0,1,13.5,3.85ZM7.653,8.462a3.369,3.369,0,0,0-1,.149,4.288,4.288,0,0,1-2.514,0,3.463,3.463,0,0,0-1-.149,3.1,3.1,0,0,0-2.6,1.319A3.263,3.263,0,0,0,0,11.59v1.26A1.35,1.35,0,0,0,1.35,14.2h8.1a1.35,1.35,0,0,0,1.35-1.35V11.59a3.223,3.223,0,0,0-.551-1.808,3.1,3.1,0,0,0-2.6-1.319Zm1.8,4.388H1.35V11.59A1.9,1.9,0,0,1,2.59,9.815a1.312,1.312,0,0,1,.9,0,5.64,5.64,0,0,0,3.828,0,1.312,1.312,0,0,1,.9,0,1.893,1.893,0,0,1,1.24,1.775v1.26ZM5.4,7.9A3.15,3.15,0,1,0,2.25,4.75,3.148,3.148,0,0,0,5.4,7.9Zm0-4.95a1.8,1.8,0,1,1-1.8,1.8A1.8,1.8,0,0,1,5.4,2.95ZM17.542,9.618a2.585,2.585,0,0,0-2.163-1.1c-.782,0-.979.281-1.879.281s-1.1-.281-1.879-.281a2.746,2.746,0,0,0-1.074.228,3.878,3.878,0,0,1,.45.532,4.129,4.129,0,0,1,.337.619,1.379,1.379,0,0,1,.287-.031,13.765,13.765,0,0,0,1.879.281,13.69,13.69,0,0,0,1.879-.281,1.239,1.239,0,0,1,1.043.5,1.341,1.341,0,0,1,.228.751v.83H11.7v.9a2.37,2.37,0,0,1-.045.45h5.22A1.125,1.125,0,0,0,18,12.175V11.126A2.687,2.687,0,0,0,17.542,9.618Z" transform="translate(0 1.1)"/></g></svg>