<svg xmlns="http://www.w3.org/2000/svg" xmlns:xlink="http://www.w3.org/1999/xlink" width="18" height="18" viewBox="0 0 18 18"><defs><style>.a{fill:#fff;stroke:#707070;}.b{clip-path:url(#a);}</style><clipPath id="a"><rect class="a" width="18" height="18" transform="translate(20.645 6)"/></clipPath></defs><g class="b" transform="translate(-20.645 -6)"><path d="M15.328,5.625A.423.423,0,0,0,15.75,5.2V3.8a.423.423,0,0,0-.422-.422h-.7V1.688A1.688,1.688,0,0,0,12.938,0H1.688A1.688,1.688,0,0,0,0,1.688V16.313A1.688,1.688,0,0,0,1.688,18h11.25a1.688,1.688,0,0,0,1.688-1.687V14.625h.7a.423.423,0,0,0,.422-.422V12.8a.423.423,0,0,0-.422-.422h-.7v-2.25h.7A.423.423,0,0,0,15.75,9.7V8.3a.423.423,0,0,0-.422-.422h-.7V5.625ZM12.938,16.313H1.688V1.688h11.25ZM7.313,9a2.25,2.25,0,1,0-2.25-2.25A2.252,2.252,0,0,0,7.313,9Zm-3.15,4.5h6.3a.737.737,0,0,0,.787-.675V12.15a2.214,2.214,0,0,0-2.363-2.025,8.488,8.488,0,0,1-1.575.281,8.364,8.364,0,0,1-1.575-.281A2.214,2.214,0,0,0,3.375,12.15v.675A.737.737,0,0,0,4.162,13.5Z" transform="translate(21.77 6)"/></g></svg>