<svg xmlns="http://www.w3.org/2000/svg" xmlns:xlink="http://www.w3.org/1999/xlink" width="16" height="16" viewBox="0 0 16 16"><defs><style>.a{fill:#fff;stroke:#707070;}.b{clip-path:url(#a);}.c{fill:#0c2577;}</style><clipPath id="a"><rect class="a" width="16" height="16" transform="translate(898 644)"/></clipPath></defs><g transform="translate(0)"><g class="b" transform="translate(-898 -644)"><path class="c" d="M12.386,1.882,10.905.4A1.37,1.37,0,0,0,9.936,0H5.024a1.37,1.37,0,0,0-1.37,1.37V2.74H1.37A1.37,1.37,0,0,0,0,4.11v9.134a1.37,1.37,0,0,0,1.37,1.37H7.764a1.37,1.37,0,0,0,1.37-1.37v-1.37h2.283a1.37,1.37,0,0,0,1.37-1.37V2.851a1.37,1.37,0,0,0-.4-.969ZM7.592,13.244H1.541a.171.171,0,0,1-.171-.171V4.281a.171.171,0,0,1,.171-.171H3.653V10.5a1.37,1.37,0,0,0,1.37,1.37h2.74v1.2A.171.171,0,0,1,7.592,13.244Zm3.653-2.74H5.195a.171.171,0,0,1-.171-.171V1.541a.171.171,0,0,1,.171-.171H8.22V3.882a.685.685,0,0,0,.685.685h2.512v5.766A.171.171,0,0,1,11.246,10.5ZM11.417,3.2H9.59V1.37h.275a.171.171,0,0,1,.121.05L11.367,2.8a.171.171,0,0,1,.05.121Z" transform="translate(900 645)"/></g></g></svg>