<svg xmlns="http://www.w3.org/2000/svg" xmlns:xlink="http://www.w3.org/1999/xlink" width="12" height="12" viewBox="0 0 12 12"><defs><style>.a,.c{fill:#0d0d0d;}.a{stroke:#545454;}.b{clip-path:url(#a);}</style><clipPath id="a"><rect class="a" width="12" height="12"/></clipPath></defs><g class="b"><path class="c" d="M7.785,15.6l4.039-4.039a.6.6,0,0,0,0-.847l-.939-.939a.6.6,0,0,0-.847,0L6,13.815,1.961,9.775a.6.6,0,0,0-.847,0l-.938.938a.6.6,0,0,0,0,.847L4.215,15.6.176,19.639a.6.6,0,0,0,0,.847l.939.939a.6.6,0,0,0,.847,0L6,17.385l4.039,4.039a.6.6,0,0,0,.847,0l.939-.939a.6.6,0,0,0,0-.847Z" transform="translate(-0.001 -9.6)"/></g></svg>