<svg xmlns="http://www.w3.org/2000/svg" xmlns:xlink="http://www.w3.org/1999/xlink" width="12" height="12" viewBox="0 0 12 12"><defs><style>.a,.c{fill:#002891;}.a{stroke:#707070;}.b{clip-path:url(#a);}</style><clipPath id="a"><rect class="a" width="12" height="12"/></clipPath></defs><g class="b"><path class="c" d="M8.381,7.183l.667-.667a.167.167,0,0,1,.285.119V9.664a1,1,0,0,1-1,1H1a1,1,0,0,1-1-1V2.331a1,1,0,0,1,1-1H6.7a.168.168,0,0,1,.119.285l-.667.667a.165.165,0,0,1-.119.048H1V9.664H8.334V7.3A.164.164,0,0,1,8.381,7.183Zm3.263-4.2L6.173,8.45,4.29,8.658a.861.861,0,0,1-.95-.95l.208-1.883L9.019.354a1.216,1.216,0,0,1,1.723,0l.9.9a1.22,1.22,0,0,1,0,1.725Zm-2.058.644-1.21-1.21L4.5,6.285l-.152,1.36,1.36-.152Zm1.35-1.66-.9-.9a.218.218,0,0,0-.308,0l-.644.644,1.21,1.21.644-.644A.222.222,0,0,0,10.936,1.962Z" transform="translate(0 0.67)"/></g></svg>