<svg xmlns="http://www.w3.org/2000/svg" xmlns:xlink="http://www.w3.org/1999/xlink" width="16" height="16" viewBox="0 0 16 16"><defs><style>.a,.c{fill:#0c2577;}.a{stroke:#707070;}.b{clip-path:url(#a);}</style><clipPath id="a"><rect class="a" width="16" height="16" transform="translate(922 644)"/></clipPath></defs><g class="b" transform="translate(-922 -644)"><path class="c" d="M6.622,7.566,2.987,6.528a1.329,1.329,0,0,1-.972-1.047A1.283,1.283,0,0,1,3.281,4H5.588a2.416,2.416,0,0,1,1.388.441.5.5,0,0,0,.641-.053l.716-.716a.505.505,0,0,0-.047-.753A4.383,4.383,0,0,0,5.588,2H5.5V.5A.5.5,0,0,0,5,0H4a.5.5,0,0,0-.5.5V2H3.422A3.387,3.387,0,0,0,.1,4.488,3.289,3.289,0,0,0,2.378,8.434L6.012,9.472a1.329,1.329,0,0,1,.972,1.047A1.283,1.283,0,0,1,5.719,12H3.412a2.416,2.416,0,0,1-1.388-.441.5.5,0,0,0-.641.053l-.716.716a.505.505,0,0,0,.047.753,4.37,4.37,0,0,0,2.7.919H3.5v1.5A.5.5,0,0,0,4,16H5a.5.5,0,0,0,.5-.5V14h.078A3.387,3.387,0,0,0,8.9,11.512,3.289,3.289,0,0,0,6.622,7.566Z" transform="translate(925.5 644)"/></g></svg>