<svg xmlns="http://www.w3.org/2000/svg" xmlns:xlink="http://www.w3.org/1999/xlink" width="18" height="18" viewBox="0 0 18 18"><defs><style>.a,.c{fill:#0d0d0d;}.a{stroke:#707070;}.b{clip-path:url(#a);}</style><clipPath id="a"><rect class="a" width="18" height="18"/></clipPath></defs><g class="b"><path class="c" d="M16.65,1.8h-5.4L9.714.264A.9.9,0,0,0,9.077,0H4.95A1.35,1.35,0,0,0,3.6,1.35V3.6H1.35A1.35,1.35,0,0,0,0,4.95v8.1A1.35,1.35,0,0,0,1.35,14.4h11.7a1.35,1.35,0,0,0,1.35-1.35V10.8h2.25A1.35,1.35,0,0,0,18,9.45V3.15A1.35,1.35,0,0,0,16.65,1.8Zm-3.6,11.25H1.35V4.95H3.6v4.5A1.35,1.35,0,0,0,4.95,10.8h8.1Zm3.6-3.6H4.95V1.35H8.891l1.536,1.536a.9.9,0,0,0,.636.264H16.65Z" transform="translate(0 1.8)"/></g></svg>