<svg xmlns="http://www.w3.org/2000/svg" xmlns:xlink="http://www.w3.org/1999/xlink" width="20" height="20" viewBox="0 0 20 20"><defs><style>.a{fill:none;}.b{clip-path:url(#a);}.c{fill:#0d0d0d;}</style><clipPath id="a"><rect class="a" width="20" height="20"/></clipPath></defs><g class="b"><g transform="translate(0.946 3.947)"><path class="c" d="M600.841,349.819H616.6a1.042,1.042,0,0,0,0-2.083H600.841a1.042,1.042,0,0,0,0,2.083Z" transform="translate(-599.799 -347.736)"/><path class="c" d="M616.6,353.75H600.841a1.042,1.042,0,0,0,0,2.083H616.6a1.042,1.042,0,0,0,0-2.083Z" transform="translate(-599.799 -348.738)"/><path class="c" d="M616.6,359.764H600.841a1.042,1.042,0,0,0,0,2.083H616.6a1.042,1.042,0,0,0,0-2.083Z" transform="translate(-599.799 -349.741)"/></g></g></svg>