<svg xmlns="http://www.w3.org/2000/svg" width="17" height="19.429" viewBox="0 0 17 19.429"><defs><style>.a{fill:#0C2577;}</style></defs><path class="a" d="M14.138,4.274V3.863a2.535,2.535,0,0,0-3.151-2.487A2.5,2.5,0,0,0,6.51,1.4,2.522,2.522,0,0,0,3.383,3.87V8.656a2.484,2.484,0,0,0-2.356.337,2.559,2.559,0,0,0-.552,3.535l4.552,6.391a1.214,1.214,0,0,0,.989.51h8.458a1.214,1.214,0,0,0,1.183-.942L16.8,13.517a7.727,7.727,0,0,0,.2-1.733V6.792A2.525,2.525,0,0,0,14.138,4.274Zm1.041,7.51a5.9,5.9,0,0,1-.15,1.324l-1.037,4.5H6.329L1.958,11.471c-.548-.769.57-1.623,1.115-.858L4.1,12.058a.608.608,0,0,0,1.1-.352V3.87A.7.7,0,1,1,6.592,3.9V9.714a.607.607,0,0,0,.607.607h.26a.607.607,0,0,0,.607-.607V2.542a.7.7,0,1,1,1.388.026V9.714a.607.607,0,0,0,.607.607h.26a.607.607,0,0,0,.607-.607V3.837a.7.7,0,1,1,1.388.026V9.714a.607.607,0,0,0,.607.607h.26a.607.607,0,0,0,.607-.607v-2.9a.7.7,0,1,1,1.388-.026v4.992Z" transform="translate(0 0)"/></svg>