<svg xmlns="http://www.w3.org/2000/svg" xmlns:xlink="http://www.w3.org/1999/xlink" width="18" height="18" viewBox="0 0 18 18"><defs><style>.a,.c{fill:#0c2577;}.a{stroke:#373737;}.b{clip-path:url(#a);}</style><clipPath id="a"><rect class="a" width="18" height="18"/></clipPath></defs><g class="b"><path class="c" d="M17.821,6.732,16,5.234V2.25a.25.25,0,0,0-.25-.25h-1a.25.25,0,0,0-.247.241V4L10.122.406a1.75,1.75,0,0,0-2.242,0L.181,6.732a.5.5,0,0,0-.063.7l.32.384a.5.5,0,0,0,.7.063L2,7.179V9h-.01v6.5a.5.5,0,0,0,.5.5H15.5a.5.5,0,0,0,.5-.5V7.179l.859.706a.5.5,0,0,0,.7-.063l.321-.384a.5.5,0,0,0-.064-.706ZM14.5,7h-.007v7.5H11V10a1,1,0,0,0-1-1H8a1,1,0,0,0-1,1v4.5H3.491V6.078L3.5,6.07V5.945L9,1.427l5.5,4.519Z" transform="translate(-0.002 1)"/></g></svg>