<svg xmlns="http://www.w3.org/2000/svg" xmlns:xlink="http://www.w3.org/1999/xlink" width="12" height="12" viewBox="0 0 12 12"><defs><style>.a,.c{fill:#0c2577;}.a{stroke:#707070;}.b{clip-path:url(#a);}</style><clipPath id="a"><rect class="a" width="12" height="12" transform="translate(-9688 -5145)"/></clipPath></defs><g transform="translate(0)"><g class="b" transform="translate(9688 5145)"><path class="c" d="M11.811,2.929h-8.5a.283.283,0,0,1-.283-.283V1.89a.283.283,0,0,1,.283-.283h8.5a.283.283,0,0,1,.283.283v.756A.283.283,0,0,1,11.811,2.929Zm.283,3.5V5.669a.283.283,0,0,0-.283-.283h-8.5a.283.283,0,0,0-.283.283v.756a.283.283,0,0,0,.283.283h8.5A.283.283,0,0,0,12.094,6.425Zm0,3.78V9.449a.283.283,0,0,0-.283-.283h-8.5a.283.283,0,0,0-.283.283V10.2a.283.283,0,0,0,.283.283h8.5A.283.283,0,0,0,12.094,10.2ZM2.173,3.024V1.512a.283.283,0,0,0-.283-.283H.378a.283.283,0,0,0-.283.283V3.024a.283.283,0,0,0,.283.283H1.89A.283.283,0,0,0,2.173,3.024Zm0,3.78V5.291a.283.283,0,0,0-.283-.283H.378a.283.283,0,0,0-.283.283V6.8a.283.283,0,0,0,.283.283H1.89A.283.283,0,0,0,2.173,6.8Zm0,3.78V9.071a.283.283,0,0,0-.283-.283H.378a.283.283,0,0,0-.283.283v1.512a.283.283,0,0,0,.283.283H1.89A.283.283,0,0,0,2.173,10.583Z" transform="translate(-9688.095 -5145.047)"/></g></g></svg>