<svg xmlns="http://www.w3.org/2000/svg" xmlns:xlink="http://www.w3.org/1999/xlink" width="18" height="18" viewBox="0 0 18 18"><defs><style>.a,.c{fill:#0d0d0d;}.a{stroke:#707070;}.b{clip-path:url(#a);}</style><clipPath id="a"><rect class="a" width="18" height="18"/></clipPath></defs><g class="b"><path class="c" d="M8.1,8.1c.373,0,.675-.4.675-.9s-.3-.9-.675-.9-.675.4-.675.9S7.727,8.1,8.1,8.1Zm9.45,4.95H14.4V3.191A1.372,1.372,0,0,0,13.05,1.8H10.8V.933A.917.917,0,0,0,9.9,0a.869.869,0,0,0-.22.028l-5.4,1.4a.927.927,0,0,0-.681.9V13.05H.45A.45.45,0,0,0,0,13.5v.45a.45.45,0,0,0,.45.45h17.1a.45.45,0,0,0,.45-.45V13.5A.45.45,0,0,0,17.55,13.05Zm-8.1,0H4.95V2.649l4.5-1.166Zm3.6,0H10.8V3.15h2.25Z" transform="translate(0 1.8)"/></g></svg>