<svg xmlns="http://www.w3.org/2000/svg" xmlns:xlink="http://www.w3.org/1999/xlink" width="18" height="18" viewBox="0 0 18 18"><defs><style>.a{fill:#fff;stroke:#707070;}.b{clip-path:url(#a);}</style><clipPath id="a"><rect class="a" width="18" height="18" transform="translate(20.645 6)"/></clipPath></defs><g class="b" transform="translate(-20.645 -6)"><path d="M16.313,2.25H1.688A1.687,1.687,0,0,0,0,3.938V14.063A1.687,1.687,0,0,0,1.688,15.75H16.313A1.687,1.687,0,0,0,18,14.063V3.938A1.687,1.687,0,0,0,16.313,2.25Zm0,1.688V5.372c-.788.642-2.045,1.64-4.732,3.744C10.989,9.582,9.816,10.7,9,10.687c-.816.013-1.989-1.106-2.581-1.572-2.686-2.1-3.943-3.1-4.732-3.744V3.938ZM1.688,14.063V7.537c.806.642,1.948,1.542,3.689,2.906.768.6,2.114,1.94,3.623,1.932,1.5.008,2.83-1.308,3.623-1.932,1.741-1.363,2.884-2.264,3.69-2.906v6.525Z" transform="translate(20.645 6)"/></g></svg>