<svg xmlns="http://www.w3.org/2000/svg" xmlns:xlink="http://www.w3.org/1999/xlink" width="12" height="12" viewBox="0 0 12 12"><defs><style>.a,.c{fill:#0d0d0d;}.a{stroke:#545454;}.b{clip-path:url(#a);}</style><clipPath id="a"><rect class="a" width="12" height="12"/></clipPath></defs><g class="b"><path class="c" d="M11.5,10.333H7v-4.5a.5.5,0,0,0-.5-.5h-1a.5.5,0,0,0-.5.5v4.5H.5a.5.5,0,0,0-.5.5v1a.5.5,0,0,0,.5.5H5v4.5a.5.5,0,0,0,.5.5h1a.5.5,0,0,0,.5-.5v-4.5h4.5a.5.5,0,0,0,.5-.5v-1A.5.5,0,0,0,11.5,10.333Z" transform="translate(0 -5.333)"/></g></svg>