<svg xmlns="http://www.w3.org/2000/svg" xmlns:xlink="http://www.w3.org/1999/xlink" width="18" height="18" viewBox="0 0 18 18"><defs><style>.a{fill:#fff;stroke:#707070;}.b{clip-path:url(#a);}</style><clipPath id="a"><rect class="a" width="18" height="18" transform="translate(86 448)"/></clipPath></defs><g class="b" transform="translate(-86 -448)"><path d="M13.006,3.443,10.057.494A1.687,1.687,0,0,0,8.864,0H1.688A1.687,1.687,0,0,0,0,1.688V16.313A1.687,1.687,0,0,0,1.688,18H11.813A1.687,1.687,0,0,0,13.5,16.313V4.636a1.687,1.687,0,0,0-.494-1.193ZM11.676,4.5H9V1.824ZM1.688,16.313V1.688H7.313V5.344a.844.844,0,0,0,.844.844h3.656V16.313Zm9.181-6.773-5,4.963a.422.422,0,0,1-.6,0l-2.64-2.661a.422.422,0,0,1,0-.6l.8-.792a.422.422,0,0,1,.6,0l1.551,1.563,3.9-3.874a.422.422,0,0,1,.6,0l.792.8a.422.422,0,0,1,0,.6Z" transform="translate(88.25 448)"/></g></svg>