<svg xmlns="http://www.w3.org/2000/svg" xmlns:xlink="http://www.w3.org/1999/xlink" width="20" height="20" viewBox="0 0 20 20"><defs><style>.a,.c{fill:#0d0d0d;}.a{stroke:#545454;}.b{clip-path:url(#a);}</style><clipPath id="a"><rect class="a" width="20" height="20"/></clipPath></defs><g class="b"><path class="c" d="M19.862,18.316,15.12,13.574a.464.464,0,0,0-.332-.137h-.516a8.123,8.123,0,1,0-.836.836v.516a.48.48,0,0,0,.137.332l4.742,4.742a.469.469,0,0,0,.664,0l.883-.883A.469.469,0,0,0,19.862,18.316ZM8.125,14.374a6.25,6.25,0,1,1,6.25-6.25A6.248,6.248,0,0,1,8.125,14.374Z" transform="translate(0.064)"/></g></svg>