<svg xmlns="http://www.w3.org/2000/svg" xmlns:xlink="http://www.w3.org/1999/xlink" width="18" height="18" viewBox="0 0 18 18"><defs><style>.a,.c{fill:#0d0d0d;}.a{stroke:#0d0d0d;}.b{clip-path:url(#a);}</style><clipPath id="a"><rect class="a" width="18" height="18"/></clipPath></defs><g class="b"><path class="c" d="M17.974,9.684l-.159-.475a.5.5,0,0,0-.631-.316l-.591.2-2.247-6.74a1.245,1.245,0,0,0-.628-.722,1.261,1.261,0,0,0-.953-.069L5.831,3.875,4.937,1.2A1.746,1.746,0,0,0,3.281,0H.5A.5.5,0,0,0,0,.5V1a.5.5,0,0,0,.5.5H3.278a.251.251,0,0,1,.237.172L6.44,10.446a3.036,3.036,0,1,0,4.512,2.109l6.7-2.237a.5.5,0,0,0,.319-.634ZM8,14.5A1.5,1.5,0,1,1,9.5,13,1.5,1.5,0,0,1,8,14.5Zm2.362-3.328A2.979,2.979,0,0,0,8,10c-.041,0-.081.009-.122.012L6.306,5.3l2.7-.9.622,1.866a.5.5,0,0,0,.631.316l.475-.159a.5.5,0,0,0,.316-.631l-.622-1.866L13,3.069l2.169,6.5-4.809,1.6Z" transform="translate(0 1)"/></g></svg>