<svg xmlns="http://www.w3.org/2000/svg" xmlns:xlink="http://www.w3.org/1999/xlink" width="18" height="18" viewBox="0 0 18 18"><defs><style>.a,.c{fill:#0d0d0d;}.a{stroke:#0d0d0d;}.b{clip-path:url(#a);}</style><clipPath id="a"><rect class="a" width="18" height="18"/></clipPath></defs><g class="b"><path class="c" d="M16.863,8.827l1.156-.667a.872.872,0,0,0,.406-.982A8.985,8.985,0,0,0,16.1,3.157a.871.871,0,0,0-1.052-.138l-1.153.666a7.123,7.123,0,0,0-1.194-.69V1.661a.872.872,0,0,0-.647-.842,9.058,9.058,0,0,0-4.643,0,.872.872,0,0,0-.648.842V2.994a7.123,7.123,0,0,0-1.194.69L4.416,3.019a.871.871,0,0,0-1.052.138A8.984,8.984,0,0,0,1.039,7.178a.872.872,0,0,0,.406.982L2.6,8.827a7.175,7.175,0,0,0,0,1.379l-1.156.667a.872.872,0,0,0-.406.982,8.985,8.985,0,0,0,2.325,4.021.871.871,0,0,0,1.052.138l1.153-.666a7.12,7.12,0,0,0,1.194.69v1.334a.872.872,0,0,0,.647.842,9.058,9.058,0,0,0,4.643,0,.872.872,0,0,0,.648-.842V16.038a7.125,7.125,0,0,0,1.194-.69l1.153.666a.871.871,0,0,0,1.052-.138,8.985,8.985,0,0,0,2.325-4.021.872.872,0,0,0-.406-.982l-1.156-.667A7.175,7.175,0,0,0,16.863,8.827Zm-1.912,2.287,1.59.918a7.263,7.263,0,0,1-1.228,2.124l-1.591-.918a6.182,6.182,0,0,1-2.764,1.6v1.836a7.291,7.291,0,0,1-2.454,0V14.835a6.184,6.184,0,0,1-2.764-1.6l-1.591.918a7.264,7.264,0,0,1-1.228-2.124l1.59-.918a6.246,6.246,0,0,1,0-3.195L2.922,7A7.265,7.265,0,0,1,4.15,4.877L5.741,5.8A6.182,6.182,0,0,1,8.5,4.2V2.361a7.291,7.291,0,0,1,2.454,0V4.2a6.184,6.184,0,0,1,2.764,1.6l1.591-.918A7.263,7.263,0,0,1,16.542,7l-1.59.918a6.246,6.246,0,0,1,0,3.195ZM9.732,6.032a3.484,3.484,0,1,0,3.484,3.484A3.488,3.488,0,0,0,9.732,6.032Zm0,5.226a1.742,1.742,0,1,1,1.742-1.742A1.744,1.744,0,0,1,9.732,11.258Z" transform="translate(-0.732 -0.516)"/></g></svg>