<svg xmlns="http://www.w3.org/2000/svg" xmlns:xlink="http://www.w3.org/1999/xlink" width="16" height="16" viewBox="0 0 16 16"><defs><style>.a{fill:#fff;stroke:#707070;}.b{clip-path:url(#a);}.c{fill:#0c2577;}</style><clipPath id="a"><rect class="a" width="16" height="16" transform="translate(1115 646)"/></clipPath></defs><g class="b" transform="translate(-1115 -646)"><path class="c" d="M8.189,5.172a2.153,2.153,0,0,0-2.1,1.67A4.162,4.162,0,0,1,3.831,5.83,3.254,3.254,0,0,1,2.923,4.17a2.157,2.157,0,1,0-1.414.04V9.579a2.159,2.159,0,1,0,1.293,0V6.63c.043.046.089.092.135.135A5.6,5.6,0,0,0,6.2,8.16,2.155,2.155,0,1,0,8.189,5.172ZM2.155,1.293a.862.862,0,1,1-.862.862A.865.865,0,0,1,2.155,1.293Zm0,11.206a.862.862,0,1,1,.862-.862A.865.865,0,0,1,2.155,12.5Zm6.034-4.31a.862.862,0,1,1,.862-.862A.865.865,0,0,1,8.189,8.189Z" transform="translate(1128.376 661.168) rotate(180)"/></g></svg>