<svg xmlns="http://www.w3.org/2000/svg" xmlns:xlink="http://www.w3.org/1999/xlink" width="18" height="18" viewBox="0 0 18 18"><defs><style>.a{fill:#fff;stroke:#707070;}.b{clip-path:url(#a);}</style><clipPath id="a"><rect class="a" width="18" height="18" transform="translate(20.645 6)"/></clipPath></defs><g class="b" transform="translate(-20.645 -6)"><path d="M16.16,6.841A3.938,3.938,0,1,0,9.917,2.3a8.009,8.009,0,0,0-1.835,0A3.938,3.938,0,1,0,1.838,6.841a7.891,7.891,0,0,0,1.026,8.222L1.371,16.557a.843.843,0,0,0,1.192,1.192l1.494-1.494a7.875,7.875,0,0,0,9.878,0l1.5,1.5a.843.843,0,1,0,1.192-1.192L15.13,15.066a7.911,7.911,0,0,0,1.03-8.226ZM13.5,1.687A2.248,2.248,0,0,1,15.256,5.34,7.9,7.9,0,0,0,11.625,2.7,2.239,2.239,0,0,1,13.5,1.687ZM2.25,3.937A2.25,2.25,0,0,1,6.377,2.7,7.862,7.862,0,0,0,2.745,5.34,2.227,2.227,0,0,1,2.25,3.937ZM9,16.311a6.187,6.187,0,1,1,6.187-6.187A6.182,6.182,0,0,1,9,16.311Zm1.624-3.364L8.2,11.277a.415.415,0,0,1-.183-.348v-4.6a.423.423,0,0,1,.422-.422H9.562a.423.423,0,0,1,.422.422v3.786l1.758,1.209a.423.423,0,0,1,.109.587l-.636.928a.43.43,0,0,1-.591.109Z" transform="translate(20.645 6)"/></g></svg>