<svg xmlns="http://www.w3.org/2000/svg" xmlns:xlink="http://www.w3.org/1999/xlink" width="16" height="16" viewBox="0 0 16 16"><defs><style>.a{fill:#fff;stroke:#707070;}.b{clip-path:url(#a);}.c{fill:#0c2577;}</style><clipPath id="a"><rect class="a" width="16" height="16" transform="translate(1055.999 646)"/></clipPath></defs><g class="b" transform="translate(-1055.999 -646)"><path class="c" d="M7.574,66.1a2.917,2.917,0,0,0-.821.131,1.457,1.457,0,0,1,.19.71A1.473,1.473,0,0,1,5.47,68.418a1.457,1.457,0,0,1-.71-.19A2.938,2.938,0,1,0,7.574,66.1Zm7.482,2.561A8.434,8.434,0,0,0,7.574,64,8.435,8.435,0,0,0,.092,68.665a.851.851,0,0,0,0,.768A8.434,8.434,0,0,0,7.574,74.1a8.435,8.435,0,0,0,7.482-4.665.851.851,0,0,0,0-.768ZM7.574,72.835a7.153,7.153,0,0,1-6.257-3.787,7.153,7.153,0,0,1,6.257-3.787,7.153,7.153,0,0,1,6.257,3.787A7.153,7.153,0,0,1,7.574,72.835Z" transform="translate(1056 585)"/></g></svg>